<mxfile host="app.diagrams.net" modified="2024-06-19T14:09:05.088Z" agent="5.0 (Macintosh; Intel Mac OS X 10_15_7) AppleWebKit/537.36 (KHTML, like Gecko) Chrome/125.0.0.0 Safari/537.36" etag="fyP22xQcdVO4YfnzE5UQ" version="16.6.6" type="github">
  <diagram id="DSrccoPb1L_ZYDu_fJc8" name="Page-1">
    <mxGraphModel dx="946" dy="1773" grid="1" gridSize="10" guides="1" tooltips="1" connect="1" arrows="1" fold="1" page="1" pageScale="1" pageWidth="827" pageHeight="1169" math="0" shadow="0">
      <root>
        <mxCell id="0" />
        <mxCell id="1" parent="0" />
        <mxCell id="VGhOZueXq3OKFW1K8l53-1" value="Actor" style="shape=umlActor;verticalLabelPosition=bottom;verticalAlign=top;html=1;outlineConnect=0;" parent="1" vertex="1">
          <mxGeometry x="80" y="80" width="30" height="60" as="geometry" />
        </mxCell>
        <mxCell id="VGhOZueXq3OKFW1K8l53-2" value="" style="strokeWidth=2;html=1;shape=mxgraph.flowchart.annotation_1;align=left;pointerEvents=1;" parent="1" vertex="1">
          <mxGeometry x="150" y="-85" width="50" height="390" as="geometry" />
        </mxCell>
        <mxCell id="o6MthNvXkS97YDRX8jHn-4" value="" style="edgeStyle=orthogonalEdgeStyle;rounded=0;orthogonalLoop=1;jettySize=auto;html=1;" edge="1" parent="1" source="o6MthNvXkS97YDRX8jHn-1" target="o6MthNvXkS97YDRX8jHn-3">
          <mxGeometry relative="1" as="geometry" />
        </mxCell>
        <mxCell id="o6MthNvXkS97YDRX8jHn-1" value="Bot" style="rounded=1;whiteSpace=wrap;html=1;" vertex="1" parent="1">
          <mxGeometry x="200" y="-120" width="120" height="60" as="geometry" />
        </mxCell>
        <mxCell id="o6MthNvXkS97YDRX8jHn-16" style="edgeStyle=orthogonalEdgeStyle;rounded=0;orthogonalLoop=1;jettySize=auto;html=1;entryX=0;entryY=0.5;entryDx=0;entryDy=0;" edge="1" parent="1" source="o6MthNvXkS97YDRX8jHn-2" target="o6MthNvXkS97YDRX8jHn-14">
          <mxGeometry relative="1" as="geometry" />
        </mxCell>
        <mxCell id="o6MthNvXkS97YDRX8jHn-2" value="miniapp" style="rounded=1;whiteSpace=wrap;html=1;" vertex="1" parent="1">
          <mxGeometry x="190" y="280" width="120" height="60" as="geometry" />
        </mxCell>
        <mxCell id="o6MthNvXkS97YDRX8jHn-6" value="" style="edgeStyle=orthogonalEdgeStyle;rounded=0;orthogonalLoop=1;jettySize=auto;html=1;" edge="1" parent="1" source="o6MthNvXkS97YDRX8jHn-3" target="o6MthNvXkS97YDRX8jHn-5">
          <mxGeometry relative="1" as="geometry" />
        </mxCell>
        <mxCell id="o6MthNvXkS97YDRX8jHn-3" value="Speaking" style="rounded=1;whiteSpace=wrap;html=1;" vertex="1" parent="1">
          <mxGeometry x="380" y="-180" width="120" height="60" as="geometry" />
        </mxCell>
        <mxCell id="o6MthNvXkS97YDRX8jHn-8" value="" style="edgeStyle=orthogonalEdgeStyle;rounded=0;orthogonalLoop=1;jettySize=auto;html=1;" edge="1" parent="1" source="o6MthNvXkS97YDRX8jHn-5" target="o6MthNvXkS97YDRX8jHn-7">
          <mxGeometry relative="1" as="geometry" />
        </mxCell>
        <mxCell id="o6MthNvXkS97YDRX8jHn-5" value="AIGC" style="whiteSpace=wrap;html=1;rounded=1;" vertex="1" parent="1">
          <mxGeometry x="580" y="-180" width="120" height="60" as="geometry" />
        </mxCell>
        <mxCell id="o6MthNvXkS97YDRX8jHn-10" value="" style="edgeStyle=orthogonalEdgeStyle;rounded=0;orthogonalLoop=1;jettySize=auto;html=1;" edge="1" parent="1" source="o6MthNvXkS97YDRX8jHn-7" target="o6MthNvXkS97YDRX8jHn-9">
          <mxGeometry relative="1" as="geometry" />
        </mxCell>
        <mxCell id="o6MthNvXkS97YDRX8jHn-7" value="Match doge" style="whiteSpace=wrap;html=1;rounded=1;" vertex="1" parent="1">
          <mxGeometry x="580" y="-40" width="120" height="60" as="geometry" />
        </mxCell>
        <mxCell id="o6MthNvXkS97YDRX8jHn-11" style="edgeStyle=orthogonalEdgeStyle;rounded=0;orthogonalLoop=1;jettySize=auto;html=1;entryX=1;entryY=0.75;entryDx=0;entryDy=0;" edge="1" parent="1" source="o6MthNvXkS97YDRX8jHn-9" target="o6MthNvXkS97YDRX8jHn-1">
          <mxGeometry relative="1" as="geometry" />
        </mxCell>
        <mxCell id="o6MthNvXkS97YDRX8jHn-13" value="" style="edgeStyle=orthogonalEdgeStyle;rounded=0;orthogonalLoop=1;jettySize=auto;html=1;" edge="1" parent="1" source="o6MthNvXkS97YDRX8jHn-9" target="o6MthNvXkS97YDRX8jHn-12">
          <mxGeometry relative="1" as="geometry" />
        </mxCell>
        <mxCell id="o6MthNvXkS97YDRX8jHn-9" value="replay" style="whiteSpace=wrap;html=1;rounded=1;" vertex="1" parent="1">
          <mxGeometry x="380" y="-40" width="120" height="60" as="geometry" />
        </mxCell>
        <mxCell id="o6MthNvXkS97YDRX8jHn-15" value="" style="edgeStyle=orthogonalEdgeStyle;rounded=0;orthogonalLoop=1;jettySize=auto;html=1;" edge="1" parent="1" source="o6MthNvXkS97YDRX8jHn-12" target="o6MthNvXkS97YDRX8jHn-14">
          <mxGeometry relative="1" as="geometry" />
        </mxCell>
        <mxCell id="o6MthNvXkS97YDRX8jHn-12" value="miniapp entrance card" style="whiteSpace=wrap;html=1;rounded=1;" vertex="1" parent="1">
          <mxGeometry x="380" y="60" width="120" height="60" as="geometry" />
        </mxCell>
        <mxCell id="o6MthNvXkS97YDRX8jHn-17" style="edgeStyle=orthogonalEdgeStyle;rounded=0;orthogonalLoop=1;jettySize=auto;html=1;" edge="1" parent="1" source="o6MthNvXkS97YDRX8jHn-14">
          <mxGeometry relative="1" as="geometry">
            <mxPoint x="560" y="180" as="targetPoint" />
          </mxGeometry>
        </mxCell>
        <mxCell id="o6MthNvXkS97YDRX8jHn-19" style="edgeStyle=orthogonalEdgeStyle;rounded=0;orthogonalLoop=1;jettySize=auto;html=1;" edge="1" parent="1" target="o6MthNvXkS97YDRX8jHn-20">
          <mxGeometry relative="1" as="geometry">
            <mxPoint x="530" y="270" as="targetPoint" />
            <mxPoint x="510" y="180" as="sourcePoint" />
            <Array as="points">
              <mxPoint x="530" y="180" />
              <mxPoint x="530" y="260" />
            </Array>
          </mxGeometry>
        </mxCell>
        <mxCell id="o6MthNvXkS97YDRX8jHn-24" style="edgeStyle=orthogonalEdgeStyle;rounded=0;orthogonalLoop=1;jettySize=auto;html=1;entryX=0;entryY=0.5;entryDx=0;entryDy=0;" edge="1" parent="1" source="o6MthNvXkS97YDRX8jHn-14" target="o6MthNvXkS97YDRX8jHn-22">
          <mxGeometry relative="1" as="geometry" />
        </mxCell>
        <mxCell id="o6MthNvXkS97YDRX8jHn-25" style="edgeStyle=orthogonalEdgeStyle;rounded=0;orthogonalLoop=1;jettySize=auto;html=1;entryX=0;entryY=0.5;entryDx=0;entryDy=0;" edge="1" parent="1" source="o6MthNvXkS97YDRX8jHn-14" target="o6MthNvXkS97YDRX8jHn-23">
          <mxGeometry relative="1" as="geometry">
            <Array as="points">
              <mxPoint x="530" y="180" />
              <mxPoint x="530" y="420" />
            </Array>
          </mxGeometry>
        </mxCell>
        <mxCell id="o6MthNvXkS97YDRX8jHn-14" value="main frame" style="whiteSpace=wrap;html=1;rounded=1;" vertex="1" parent="1">
          <mxGeometry x="380" y="150" width="120" height="60" as="geometry" />
        </mxCell>
        <mxCell id="o6MthNvXkS97YDRX8jHn-26" style="edgeStyle=orthogonalEdgeStyle;rounded=0;orthogonalLoop=1;jettySize=auto;html=1;" edge="1" parent="1" source="o6MthNvXkS97YDRX8jHn-18">
          <mxGeometry relative="1" as="geometry">
            <mxPoint x="620" y="100" as="targetPoint" />
          </mxGeometry>
        </mxCell>
        <mxCell id="o6MthNvXkS97YDRX8jHn-18" value="My voice tab" style="rounded=1;whiteSpace=wrap;html=1;fillColor=#d0cee2;strokeColor=#56517e;" vertex="1" parent="1">
          <mxGeometry x="560" y="150" width="120" height="60" as="geometry" />
        </mxCell>
        <mxCell id="o6MthNvXkS97YDRX8jHn-20" value="Friend tab" style="rounded=1;whiteSpace=wrap;html=1;fillColor=#d0cee2;strokeColor=#56517e;" vertex="1" parent="1">
          <mxGeometry x="560" y="230" width="120" height="60" as="geometry" />
        </mxCell>
        <mxCell id="o6MthNvXkS97YDRX8jHn-22" value="task Tab" style="rounded=1;whiteSpace=wrap;html=1;fillColor=#d0cee2;strokeColor=#56517e;" vertex="1" parent="1">
          <mxGeometry x="560" y="310" width="120" height="60" as="geometry" />
        </mxCell>
        <mxCell id="o6MthNvXkS97YDRX8jHn-23" value="Shop Tab" style="rounded=1;whiteSpace=wrap;html=1;fillColor=#d0cee2;strokeColor=#56517e;" vertex="1" parent="1">
          <mxGeometry x="560" y="390" width="120" height="60" as="geometry" />
        </mxCell>
        <mxCell id="o6MthNvXkS97YDRX8jHn-29" value="" style="edgeStyle=orthogonalEdgeStyle;rounded=0;orthogonalLoop=1;jettySize=auto;html=1;fillColor=#d0cee2;strokeColor=#56517e;" edge="1" parent="1" source="o6MthNvXkS97YDRX8jHn-28" target="o6MthNvXkS97YDRX8jHn-18">
          <mxGeometry relative="1" as="geometry" />
        </mxCell>
        <mxCell id="o6MthNvXkS97YDRX8jHn-28" value="Share to social network" style="rhombus;whiteSpace=wrap;html=1;fillColor=#f8cecc;strokeColor=#b85450;" vertex="1" parent="1">
          <mxGeometry x="560" y="50" width="120" height="60" as="geometry" />
        </mxCell>
        <mxCell id="o6MthNvXkS97YDRX8jHn-32" value="" style="endArrow=none;html=1;rounded=0;" edge="1" parent="1">
          <mxGeometry width="50" height="50" relative="1" as="geometry">
            <mxPoint x="440" y="480" as="sourcePoint" />
            <mxPoint x="439.5" y="210" as="targetPoint" />
          </mxGeometry>
        </mxCell>
        <mxCell id="o6MthNvXkS97YDRX8jHn-35" value="Token Lable" style="rounded=0;whiteSpace=wrap;html=1;fillColor=#fff2cc;strokeColor=#d6b656;" vertex="1" parent="1">
          <mxGeometry x="370" y="260" width="80" height="30" as="geometry" />
        </mxCell>
        <mxCell id="o6MthNvXkS97YDRX8jHn-36" value="Adress in blockchain" style="rounded=0;whiteSpace=wrap;html=1;fillColor=#fff2cc;strokeColor=#d6b656;" vertex="1" parent="1">
          <mxGeometry x="370" y="220" width="80" height="30" as="geometry" />
        </mxCell>
        <mxCell id="o6MthNvXkS97YDRX8jHn-37" value="Private Contrubution" style="rounded=0;whiteSpace=wrap;html=1;fillColor=#dae8fc;strokeColor=#6c8ebf;" vertex="1" parent="1">
          <mxGeometry x="370" y="320" width="80" height="30" as="geometry" />
        </mxCell>
        <mxCell id="o6MthNvXkS97YDRX8jHn-38" value="Rewards Action" style="rounded=0;whiteSpace=wrap;html=1;fillColor=#1ba1e2;fontColor=#ffffff;strokeColor=#006EAF;" vertex="1" parent="1">
          <mxGeometry x="370" y="480" width="80" height="30" as="geometry" />
        </mxCell>
        <mxCell id="o6MthNvXkS97YDRX8jHn-39" value="Timeout lable" style="rounded=0;whiteSpace=wrap;html=1;fillColor=#1ba1e2;fontColor=#ffffff;strokeColor=#006EAF;" vertex="1" parent="1">
          <mxGeometry x="370" y="530" width="80" height="30" as="geometry" />
        </mxCell>
        <mxCell id="o6MthNvXkS97YDRX8jHn-40" value="Public Contrubution" style="rounded=0;whiteSpace=wrap;html=1;fillColor=#dae8fc;strokeColor=#6c8ebf;" vertex="1" parent="1">
          <mxGeometry x="370" y="360" width="80" height="30" as="geometry" />
        </mxCell>
        <mxCell id="o6MthNvXkS97YDRX8jHn-41" value="Co-coreater number" style="rounded=0;whiteSpace=wrap;html=1;fillColor=#dae8fc;strokeColor=#6c8ebf;" vertex="1" parent="1">
          <mxGeometry x="370" y="400" width="80" height="30" as="geometry" />
        </mxCell>
        <mxCell id="o6MthNvXkS97YDRX8jHn-42" value="+" style="text;html=1;strokeColor=none;fillColor=none;align=center;verticalAlign=middle;whiteSpace=wrap;rounded=0;" vertex="1" parent="1">
          <mxGeometry x="380" y="340" width="60" height="30" as="geometry" />
        </mxCell>
        <mxCell id="o6MthNvXkS97YDRX8jHn-43" value="=" style="text;html=1;strokeColor=none;fillColor=none;align=center;verticalAlign=middle;whiteSpace=wrap;rounded=0;" vertex="1" parent="1">
          <mxGeometry x="380" y="380" width="60" height="30" as="geometry" />
        </mxCell>
      </root>
    </mxGraphModel>
  </diagram>
</mxfile>
